{
    "asset" : {
        "generator" : "Khronos glTF Blender I/O v1.6.16",
        "version" : "2.0"
    },
    "scene" : 0,
    "scenes" : [
        {
            "name" : "Scene",
            "nodes" : [
                0
            ]
        }
    ],
    "nodes" : [
        {
            "mesh" : 0,
            "name" : "Torus.001",
            "rotation" : [
                0.7071068286895752,
                0,
                0,
                0.7071067094802856
            ],
            "scale" : [
                0.8704961538314819,
                0.8704961538314819,
                0.8704961538314819
            ]
        }
    ],
    "materials" : [
        {
            "doubleSided" : true,
            "name" : "Axel Colour",
            "pbrMetallicRoughness" : {
                "baseColorFactor" : [
                    0.004241828806698322,
                    0.004241828806698322,
                    0.004241828806698322,
                    1
                ],
                "metallicFactor" : 0.5882353186607361,
                "roughnessFactor" : 0.3529411554336548
            }
        }
    ],
    "meshes" : [
        {
            "name" : "Torus.001",
            "primitives" : [
                {
                    "attributes" : {
                        "POSITION" : 0,
                        "NORMAL" : 1,
                        "TEXCOORD_0" : 2
                    },
                    "indices" : 3,
                    "material" : 0
                }
            ]
        }
    ],
    "accessors" : [
        {
            "bufferView" : 0,
            "componentType" : 5126,
            "count" : 252,
            "max" : [
                0.13723155856132507,
                0.020000005140900612,
                0.07053428143262863
            ],
            "min" : [
                -0.13723155856132507,
                -0.021075205877423286,
                -0.09140334278345108
            ],
            "type" : "VEC3"
        },
        {
            "bufferView" : 1,
            "componentType" : 5126,
            "count" : 252,
            "type" : "VEC3"
        },
        {
            "bufferView" : 2,
            "componentType" : 5126,
            "count" : 252,
            "type" : "VEC2"
        },
        {
            "bufferView" : 3,
            "componentType" : 5123,
            "count" : 390,
            "type" : "SCALAR"
        }
    ],
    "bufferViews" : [
        {
            "buffer" : 0,
            "byteLength" : 3024,
            "byteOffset" : 0
        },
        {
            "buffer" : 0,
            "byteLength" : 3024,
            "byteOffset" : 3024
        },
        {
            "buffer" : 0,
            "byteLength" : 2016,
            "byteOffset" : 6048
        },
        {
            "buffer" : 0,
            "byteLength" : 780,
            "byteOffset" : 8064
        }
    ],
    "buffers" : [
        {
            "byteLength" : 8844,
            "uri" : "data:application/octet-stream;base64,"
        }
    ]
}
