{
    "asset" : {
        "generator" : "Khronos glTF Blender I/O v1.6.16",
        "version" : "2.0"
    },
    "scene" : 0,
    "scenes" : [
        {
            "name" : "Scene",
            "nodes" : [
                0,
                1,
                2
            ]
        }
    ],
    "nodes" : [
        {
            "mesh" : 0,
            "name" : "Bahrain Mesh Road",
            "scale" : [
                358,
                1,
                358
            ]
        },
        {
            "mesh" : 1,
            "name" : "Plane",
            "translation" : [
                0,
                -0.010000000707805157,
                0
            ]
        },
        {
            "mesh" : 2,
            "name" : "Bahrain Path.001",
            "scale" : [
                358,
                1,
                358
            ],
            "translation" : [
                0.86250901222229,
                -0.005000000353902578,
                -2.8955492973327637
            ]
        }
    ],
    "materials" : [
        {
            "doubleSided" : true,
            "name" : "Material.001",
            "pbrMetallicRoughness" : {
                "baseColorFactor" : [
                    0.011087578721344471,
                    0.011087578721344471,
                    0.011087578721344471,
                    1
                ],
                "metallicFactor" : 0.04411764815449715,
                "roughnessFactor" : 0.9558823108673096
            }
        },
        {
            "doubleSided" : true,
            "name" : "Sand",
            "pbrMetallicRoughness" : {
                "baseColorFactor" : [
                    0.42002278566360474,
                    0.4026513397693634,
                    0.3530837893486023,
                    1
                ],
                "metallicFactor" : 0
            }
        },
        {
            "doubleSided" : true,
            "name" : "Material",
            "pbrMetallicRoughness" : {
                "baseColorFactor" : [
                    0.8549773693084717,
                    0.8549773693084717,
                    0.8549773693084717,
                    1
                ],
                "metallicFactor" : 0,
                "roughnessFactor" : 0.4000000059604645
            }
        }
    ],
    "meshes" : [
        {
            "name" : "path4003.002",
            "primitives" : [
                {
                    "attributes" : {
                        "POSITION" : 0,
                        "NORMAL" : 1,
                        "TEXCOORD_0" : 2
                    },
                    "indices" : 3,
                    "material" : 0
                }
            ]
        },
        {
            "name" : "Plane.001",
            "primitives" : [
                {
                    "attributes" : {
                        "POSITION" : 4,
                        "NORMAL" : 5,
                        "TEXCOORD_0" : 6
                    },
                    "indices" : 7,
                    "material" : 1
                }
            ]
        },
        {
            "name" : "path4003.006",
            "primitives" : [
                {
                    "attributes" : {
                        "POSITION" : 8,
                        "NORMAL" : 9,
                        "TEXCOORD_0" : 10
                    },
                    "indices" : 11,
                    "material" : 2
                }
            ]
        }
    ],
    "accessors" : [
        {
            "bufferView" : 0,
            "componentType" : 5126,
            "count" : 337,
            "max" : [
                0.21188703179359436,
                0.10000000149011612,
                0.10248780995607376
            ],
            "min" : [
                -0.13966819643974304,
                0.10000000149011612,
                -0.12489824742078781
            ],
            "type" : "VEC3"
        },
        {
            "bufferView" : 1,
            "componentType" : 5126,
            "count" : 337,
            "type" : "VEC3"
        },
        {
            "bufferView" : 2,
            "componentType" : 5126,
            "count" : 337,
            "type" : "VEC2"
        },
        {
            "bufferView" : 3,
            "componentType" : 5123,
            "count" : 1011,
            "type" : "SCALAR"
        },
        {
            "bufferView" : 4,
            "componentType" : 5126,
            "count" : 4,
            "max" : [
                100.00000762939453,
                0,
                100.00000762939453
            ],
            "min" : [
                -100.00000762939453,
                0,
                -100.00000762939453
            ],
            "type" : "VEC3"
        },
        {
            "bufferView" : 5,
            "componentType" : 5126,
            "count" : 4,
            "type" : "VEC3"
        },
        {
            "bufferView" : 6,
            "componentType" : 5126,
            "count" : 4,
            "type" : "VEC2"
        },
        {
            "bufferView" : 7,
            "componentType" : 5123,
            "count" : 6,
            "type" : "SCALAR"
        },
        {
            "bufferView" : 8,
            "componentType" : 5126,
            "count" : 576,
            "max" : [
                0.2110746204853058,
                0.001000000280328095,
                0.11230280995368958
            ],
            "min" : [
                -0.14444972574710846,
                -0.001000000280328095,
                -0.11885319650173187
            ],
            "type" : "VEC3"
        },
        {
            "bufferView" : 9,
            "componentType" : 5126,
            "count" : 576,
            "type" : "VEC3"
        },
        {
            "bufferView" : 10,
            "componentType" : 5126,
            "count" : 576,
            "type" : "VEC2"
        },
        {
            "bufferView" : 11,
            "componentType" : 5123,
            "count" : 2592,
            "type" : "SCALAR"
        }
    ],
    "bufferViews" : [
        {
            "buffer" : 0,
            "byteLength" : 4044,
            "byteOffset" : 0
        },
        {
            "buffer" : 0,
            "byteLength" : 4044,
            "byteOffset" : 4044
        },
        {
            "buffer" : 0,
            "byteLength" : 2696,
            "byteOffset" : 8088
        },
        {
            "buffer" : 0,
            "byteLength" : 2022,
            "byteOffset" : 10784
        },
        {
            "buffer" : 0,
            "byteLength" : 48,
            "byteOffset" : 12808
        },
        {
            "buffer" : 0,
            "byteLength" : 48,
            "byteOffset" : 12856
        },
        {
            "buffer" : 0,
            "byteLength" : 32,
            "byteOffset" : 12904
        },
        {
            "buffer" : 0,
            "byteLength" : 12,
            "byteOffset" : 12936
        },
        {
            "buffer" : 0,
            "byteLength" : 6912,
            "byteOffset" : 12948
        },
        {
            "buffer" : 0,
            "byteLength" : 6912,
            "byteOffset" : 19860
        },
        {
            "buffer" : 0,
            "byteLength" : 4608,
            "byteOffset" : 26772
        },
        {
            "buffer" : 0,
            "byteLength" : 5184,
            "byteOffset" : 31380
        }
    ],
    "buffers" : [
        {
            "byteLength" : 36564,
            "uri" : "data:application/octet-stream;base64,"
        }
    ]
}
