{
    "asset" : {
        "generator" : "Khronos glTF Blender I/O v1.6.16",
        "version" : "2.0"
    },
    "scene" : 0,
    "scenes" : [
        {
            "name" : "Scene",
            "nodes" : [
                0
            ]
        }
    ],
    "nodes" : [
        {
            "mesh" : 0,
            "name" : "Tyre Front",
            "rotation" : [
                -0.7071068286895752,
                0.7071067690849304,
                0,
                -1.1520231879558196e-07
            ],
            "scale" : [
                0.36000001430511475,
                0.3050000071525574,
                0.35999998450279236
            ]
        }
    ],
    "materials" : [
        {
            "doubleSided" : true,
            "name" : "Tire.001",
            "pbrMetallicRoughness" : {
                "baseColorFactor" : [
                    0.0020634178072214127,
                    0.0020634178072214127,
                    0.0020634178072214127,
                    1
                ],
                "metallicFactor" : 0,
                "roughnessFactor" : 0.7279411554336548
            }
        }
    ],
    "meshes" : [
        {
            "name" : "Cylinder.002",
            "primitives" : [
                {
                    "attributes" : {
                        "POSITION" : 0,
                        "NORMAL" : 1,
                        "TEXCOORD_0" : 2
                    },
                    "indices" : 3,
                    "material" : 0
                }
            ]
        }
    ],
    "accessors" : [
        {
            "bufferView" : 0,
            "componentType" : 5126,
            "count" : 328,
            "max" : [
                1,
                0.5,
                1
            ],
            "min" : [
                -1,
                -0.5,
                -1
            ],
            "type" : "VEC3"
        },
        {
            "bufferView" : 1,
            "componentType" : 5126,
            "count" : 328,
            "type" : "VEC3"
        },
        {
            "bufferView" : 2,
            "componentType" : 5126,
            "count" : 328,
            "type" : "VEC2"
        },
        {
            "bufferView" : 3,
            "componentType" : 5123,
            "count" : 372,
            "type" : "SCALAR"
        }
    ],
    "bufferViews" : [
        {
            "buffer" : 0,
            "byteLength" : 3936,
            "byteOffset" : 0
        },
        {
            "buffer" : 0,
            "byteLength" : 3936,
            "byteOffset" : 3936
        },
        {
            "buffer" : 0,
            "byteLength" : 2624,
            "byteOffset" : 7872
        },
        {
            "buffer" : 0,
            "byteLength" : 744,
            "byteOffset" : 10496
        }
    ],
    "buffers" : [
        {
            "byteLength" : 11240,
            "uri" : "data:application/octet-stream;base64,"
        }
    ]
}
