{
    "asset" : {
        "generator" : "Khronos glTF Blender I/O v1.6.16",
        "version" : "2.0"
    },
    "scene" : 0,
    "scenes" : [
        {
            "name" : "Scene",
            "nodes" : [
                0,
                1,
                2,
                3,
                4,
                5,
                6,
                7,
                8
            ]
        }
    ],
    "nodes" : [
        {
            "mesh" : 0,
            "name" : "Axel Back",
            "rotation" : [
                0,
                0,
                0,
                -1
            ],
            "translation" : [
                0,
                0.034052371978759766,
                -7.042286396026611
            ]
        },
        {
            "mesh" : 1,
            "name" : "Axel Front",
            "rotation" : [
                0,
                1,
                0,
                -1.6292068494294654e-07
            ],
            "translation" : [
                -0.4981222152709961,
                -1.1216949224472046,
                4.263596534729004
            ]
        },
        {
            "mesh" : 2,
            "name" : "Helmet",
            "rotation" : [
                0,
                1,
                0,
                -1.6292068494294654e-07
            ],
            "translation" : [
                0,
                1.0399999618530273,
                -1
            ]
        },
        {
            "mesh" : 3,
            "name" : "Spoiler",
            "rotation" : [
                0,
                1,
                0,
                -1.6292068494294654e-07
            ],
            "translation" : [
                0,
                2,
                -9
            ]
        },
        {
            "mesh" : 4,
            "name" : "Torus",
            "rotation" : [
                0,
                1,
                0,
                -1.6292068494294654e-07
            ],
            "scale" : [
                0.9337862730026245,
                0.9337862730026245,
                0.9337862730026245
            ],
            "translation" : [
                -0.0026918211951851845,
                1.5245695114135742,
                0.3820229768753052
            ]
        },
        {
            "mesh" : 5,
            "name" : "Front wing",
            "rotation" : [
                0,
                1,
                0,
                -1.6292068494294654e-07
            ],
            "translation" : [
                0,
                0.20000004768371582,
                8.513082504272461
            ]
        },
        {
            "mesh" : 6,
            "name" : "Body 01",
            "rotation" : [
                0,
                1,
                0,
                -1.6292068494294654e-07
            ],
            "translation" : [
                0,
                0,
                -1
            ]
        },
        {
            "mesh" : 7,
            "name" : "Body 02",
            "rotation" : [
                0,
                1,
                0,
                -1.6292068494294654e-07
            ],
            "translation" : [
                0,
                0.6000000238418579,
                -1
            ]
        },
        {
            "mesh" : 8,
            "name" : "Body 03",
            "rotation" : [
                0,
                1,
                0,
                -1.6292068494294654e-07
            ],
            "translation" : [
                0,
                0.6000000238418579,
                -1
            ]
        }
    ],
    "materials" : [
        {
            "doubleSided" : true,
            "name" : "Tire",
            "pbrMetallicRoughness" : {
                "baseColorFactor" : [
                    0.06072085723280907,
                    0.06072085723280907,
                    0.06072085723280907,
                    1
                ],
                "metallicFactor" : 0,
                "roughnessFactor" : 0.5
            }
        },
        {
            "doubleSided" : true,
            "name" : "Blue",
            "pbrMetallicRoughness" : {
                "baseColorFactor" : [
                    0.1009838879108429,
                    0.2120794653892517,
                    0.8000000715255737,
                    1
                ],
                "metallicFactor" : 0,
                "roughnessFactor" : 0.5
            }
        },
        {
            "doubleSided" : true,
            "name" : "Orange",
            "pbrMetallicRoughness" : {
                "baseColorFactor" : [
                    0.8549857139587402,
                    0.2093479037284851,
                    0.05150206759572029,
                    1
                ],
                "metallicFactor" : 0,
                "roughnessFactor" : 0.5
            }
        },
        {
            "doubleSided" : true,
            "name" : "Orange Dark",
            "pbrMetallicRoughness" : {
                "baseColorFactor" : [
                    0.10449361056089401,
                    0.033637821674346924,
                    0.013450670056045055,
                    1
                ],
                "metallicFactor" : 0,
                "roughnessFactor" : 0.5
            }
        }
    ],
    "meshes" : [
        {
            "name" : "Cylinder.003",
            "primitives" : [
                {
                    "attributes" : {
                        "POSITION" : 0,
                        "NORMAL" : 1,
                        "TEXCOORD_0" : 2
                    },
                    "indices" : 3,
                    "material" : 0
                }
            ]
        },
        {
            "name" : "Cylinder.001",
            "primitives" : [
                {
                    "attributes" : {
                        "POSITION" : 4,
                        "NORMAL" : 5,
                        "TEXCOORD_0" : 6
                    },
                    "indices" : 7,
                    "material" : 0
                }
            ]
        },
        {
            "name" : "Icosphere",
            "primitives" : [
                {
                    "attributes" : {
                        "POSITION" : 8,
                        "NORMAL" : 9,
                        "TEXCOORD_0" : 10
                    },
                    "indices" : 11,
                    "material" : 0
                }
            ]
        },
        {
            "name" : "Cube.004",
            "primitives" : [
                {
                    "attributes" : {
                        "POSITION" : 12,
                        "NORMAL" : 13,
                        "TEXCOORD_0" : 14
                    },
                    "indices" : 15,
                    "material" : 1
                }
            ]
        },
        {
            "name" : "Torus",
            "primitives" : [
                {
                    "attributes" : {
                        "POSITION" : 16,
                        "NORMAL" : 17,
                        "TEXCOORD_0" : 18
                    },
                    "indices" : 19,
                    "material" : 2
                }
            ]
        },
        {
            "name" : "Cube.001",
            "primitives" : [
                {
                    "attributes" : {
                        "POSITION" : 20,
                        "NORMAL" : 21,
                        "TEXCOORD_0" : 22
                    },
                    "indices" : 23,
                    "material" : 1
                }
            ]
        },
        {
            "name" : "Cube.002",
            "primitives" : [
                {
                    "attributes" : {
                        "POSITION" : 24,
                        "NORMAL" : 25,
                        "TEXCOORD_0" : 26
                    },
                    "indices" : 27,
                    "material" : 1
                }
            ]
        },
        {
            "name" : "Cube.003",
            "primitives" : [
                {
                    "attributes" : {
                        "POSITION" : 28,
                        "NORMAL" : 29,
                        "TEXCOORD_0" : 30
                    },
                    "indices" : 31,
                    "material" : 2
                },
                {
                    "attributes" : {
                        "POSITION" : 32,
                        "NORMAL" : 33,
                        "TEXCOORD_0" : 34
                    },
                    "indices" : 35,
                    "material" : 3
                }
            ]
        },
        {
            "name" : "Cube.005",
            "primitives" : [
                {
                    "attributes" : {
                        "POSITION" : 36,
                        "NORMAL" : 37,
                        "TEXCOORD_0" : 38
                    },
                    "indices" : 39,
                    "material" : 2
                },
                {
                    "attributes" : {
                        "POSITION" : 40,
                        "NORMAL" : 41,
                        "TEXCOORD_0" : 42
                    },
                    "indices" : 43,
                    "material" : 3
                }
            ]
        }
    ],
    "accessors" : [
        {
            "bufferView" : 0,
            "componentType" : 5126,
            "count" : 180,
            "max" : [
                2.4000003337860107,
                0.4432830512523651,
                0.9437326788902283
            ],
            "min" : [
                -2.3999998569488525,
                -0.3678475022315979,
                -0.6278643608093262
            ],
            "type" : "VEC3"
        },
        {
            "bufferView" : 1,
            "componentType" : 5126,
            "count" : 180,
            "type" : "VEC3"
        },
        {
            "bufferView" : 2,
            "componentType" : 5126,
            "count" : 180,
            "type" : "VEC2"
        },
        {
            "bufferView" : 3,
            "componentType" : 5123,
            "count" : 288,
            "type" : "SCALAR"
        },
        {
            "bufferView" : 4,
            "componentType" : 5126,
            "count" : 176,
            "max" : [
                1.9018774032592773,
                1.5235947370529175,
                -0.6262748837471008
            ],
            "min" : [
                -2.898122787475586,
                0.7878997921943665,
                -2.1978719234466553
            ],
            "type" : "VEC3"
        },
        {
            "bufferView" : 5,
            "componentType" : 5126,
            "count" : 176,
            "type" : "VEC3"
        },
        {
            "bufferView" : 6,
            "componentType" : 5126,
            "count" : 176,
            "type" : "VEC2"
        },
        {
            "bufferView" : 7,
            "componentType" : 5123,
            "count" : 288,
            "type" : "SCALAR"
        },
        {
            "bufferView" : 8,
            "componentType" : 5126,
            "count" : 240,
            "max" : [
                0.6196833848953247,
                0.6233083605766296,
                0.6255929470062256
            ],
            "min" : [
                -0.6196833848953247,
                -0.6233083605766296,
                -0.6255929470062256
            ],
            "type" : "VEC3"
        },
        {
            "bufferView" : 9,
            "componentType" : 5126,
            "count" : 240,
            "type" : "VEC3"
        },
        {
            "bufferView" : 10,
            "componentType" : 5126,
            "count" : 240,
            "type" : "VEC2"
        },
        {
            "bufferView" : 11,
            "componentType" : 5123,
            "count" : 360,
            "type" : "SCALAR"
        },
        {
            "bufferView" : 12,
            "componentType" : 5126,
            "count" : 458,
            "max" : [
                2.974897861480713,
                0.1860051453113556,
                0.5113589763641357
            ],
            "min" : [
                -2.974897861480713,
                -1.6156153678894043,
                -1
            ],
            "type" : "VEC3"
        },
        {
            "bufferView" : 13,
            "componentType" : 5126,
            "count" : 458,
            "type" : "VEC3"
        },
        {
            "bufferView" : 14,
            "componentType" : 5126,
            "count" : 458,
            "type" : "VEC2"
        },
        {
            "bufferView" : 15,
            "componentType" : 5123,
            "count" : 768,
            "type" : "SCALAR"
        },
        {
            "bufferView" : 16,
            "componentType" : 5126,
            "count" : 188,
            "max" : [
                1.3489028215408325,
                0.1072152853012085,
                0.39470475912094116
            ],
            "min" : [
                -1.3588560819625854,
                -0.8597229719161987,
                -2.0665130615234375
            ],
            "type" : "VEC3"
        },
        {
            "bufferView" : 17,
            "componentType" : 5126,
            "count" : 188,
            "type" : "VEC3"
        },
        {
            "bufferView" : 18,
            "componentType" : 5126,
            "count" : 188,
            "type" : "VEC2"
        },
        {
            "bufferView" : 19,
            "componentType" : 5123,
            "count" : 294,
            "type" : "SCALAR"
        },
        {
            "bufferView" : 20,
            "componentType" : 5126,
            "count" : 206,
            "max" : [
                4,
                0.10000002384185791,
                1
            ],
            "min" : [
                -4,
                -1,
                -1.5
            ],
            "type" : "VEC3"
        },
        {
            "bufferView" : 21,
            "componentType" : 5126,
            "count" : 206,
            "type" : "VEC3"
        },
        {
            "bufferView" : 22,
            "componentType" : 5126,
            "count" : 206,
            "type" : "VEC2"
        },
        {
            "bufferView" : 23,
            "componentType" : 5123,
            "count" : 354,
            "type" : "SCALAR"
        },
        {
            "bufferView" : 24,
            "componentType" : 5126,
            "count" : 237,
            "max" : [
                2.5,
                0,
                7.000000476837158
            ],
            "min" : [
                -2.5,
                -0.6000000238418579,
                -10.5
            ],
            "type" : "VEC3"
        },
        {
            "bufferView" : 25,
            "componentType" : 5126,
            "count" : 237,
            "type" : "VEC3"
        },
        {
            "bufferView" : 26,
            "componentType" : 5126,
            "count" : 237,
            "type" : "VEC2"
        },
        {
            "bufferView" : 27,
            "componentType" : 5123,
            "count" : 384,
            "type" : "SCALAR"
        },
        {
            "bufferView" : 28,
            "componentType" : 5126,
            "count" : 126,
            "max" : [
                2.5,
                0.24166330695152283,
                8.369063377380371
            ],
            "min" : [
                -2.5,
                -0.9564995169639587,
                -9.71238899230957
            ],
            "type" : "VEC3"
        },
        {
            "bufferView" : 29,
            "componentType" : 5126,
            "count" : 126,
            "type" : "VEC3"
        },
        {
            "bufferView" : 30,
            "componentType" : 5126,
            "count" : 126,
            "type" : "VEC2"
        },
        {
            "bufferView" : 31,
            "componentType" : 5123,
            "count" : 192,
            "type" : "SCALAR"
        },
        {
            "bufferView" : 32,
            "componentType" : 5126,
            "count" : 46,
            "max" : [
                2.294623851776123,
                0.05661025643348694,
                8.369063377380371
            ],
            "min" : [
                -2.294623851776123,
                -0.5161832571029663,
                -3.1021628379821777
            ],
            "type" : "VEC3"
        },
        {
            "bufferView" : 33,
            "componentType" : 5126,
            "count" : 46,
            "type" : "VEC3"
        },
        {
            "bufferView" : 34,
            "componentType" : 5126,
            "count" : 46,
            "type" : "VEC2"
        },
        {
            "bufferView" : 35,
            "componentType" : 5123,
            "count" : 72,
            "type" : "SCALAR"
        },
        {
            "bufferView" : 36,
            "componentType" : 5126,
            "count" : 370,
            "max" : [
                2.5,
                1.4532077312469482,
                8.401586532592773
            ],
            "min" : [
                -2.5,
                -0.5895833969116211,
                -2.2824811935424805
            ],
            "type" : "VEC3"
        },
        {
            "bufferView" : 37,
            "componentType" : 5126,
            "count" : 370,
            "type" : "VEC3"
        },
        {
            "bufferView" : 38,
            "componentType" : 5126,
            "count" : 370,
            "type" : "VEC2"
        },
        {
            "bufferView" : 39,
            "componentType" : 5123,
            "count" : 588,
            "type" : "SCALAR"
        },
        {
            "bufferView" : 40,
            "componentType" : 5126,
            "count" : 60,
            "max" : [
                0.20351192355155945,
                1.4061391353607178,
                8.393954277038574
            ],
            "min" : [
                -0.2035122811794281,
                0.01941996067762375,
                0.8432403206825256
            ],
            "type" : "VEC3"
        },
        {
            "bufferView" : 41,
            "componentType" : 5126,
            "count" : 60,
            "type" : "VEC3"
        },
        {
            "bufferView" : 42,
            "componentType" : 5126,
            "count" : 60,
            "type" : "VEC2"
        },
        {
            "bufferView" : 43,
            "componentType" : 5123,
            "count" : 96,
            "type" : "SCALAR"
        }
    ],
    "bufferViews" : [
        {
            "buffer" : 0,
            "byteLength" : 2160,
            "byteOffset" : 0
        },
        {
            "buffer" : 0,
            "byteLength" : 2160,
            "byteOffset" : 2160
        },
        {
            "buffer" : 0,
            "byteLength" : 1440,
            "byteOffset" : 4320
        },
        {
            "buffer" : 0,
            "byteLength" : 576,
            "byteOffset" : 5760
        },
        {
            "buffer" : 0,
            "byteLength" : 2112,
            "byteOffset" : 6336
        },
        {
            "buffer" : 0,
            "byteLength" : 2112,
            "byteOffset" : 8448
        },
        {
            "buffer" : 0,
            "byteLength" : 1408,
            "byteOffset" : 10560
        },
        {
            "buffer" : 0,
            "byteLength" : 576,
            "byteOffset" : 11968
        },
        {
            "buffer" : 0,
            "byteLength" : 2880,
            "byteOffset" : 12544
        },
        {
            "buffer" : 0,
            "byteLength" : 2880,
            "byteOffset" : 15424
        },
        {
            "buffer" : 0,
            "byteLength" : 1920,
            "byteOffset" : 18304
        },
        {
            "buffer" : 0,
            "byteLength" : 720,
            "byteOffset" : 20224
        },
        {
            "buffer" : 0,
            "byteLength" : 5496,
            "byteOffset" : 20944
        },
        {
            "buffer" : 0,
            "byteLength" : 5496,
            "byteOffset" : 26440
        },
        {
            "buffer" : 0,
            "byteLength" : 3664,
            "byteOffset" : 31936
        },
        {
            "buffer" : 0,
            "byteLength" : 1536,
            "byteOffset" : 35600
        },
        {
            "buffer" : 0,
            "byteLength" : 2256,
            "byteOffset" : 37136
        },
        {
            "buffer" : 0,
            "byteLength" : 2256,
            "byteOffset" : 39392
        },
        {
            "buffer" : 0,
            "byteLength" : 1504,
            "byteOffset" : 41648
        },
        {
            "buffer" : 0,
            "byteLength" : 588,
            "byteOffset" : 43152
        },
        {
            "buffer" : 0,
            "byteLength" : 2472,
            "byteOffset" : 43740
        },
        {
            "buffer" : 0,
            "byteLength" : 2472,
            "byteOffset" : 46212
        },
        {
            "buffer" : 0,
            "byteLength" : 1648,
            "byteOffset" : 48684
        },
        {
            "buffer" : 0,
            "byteLength" : 708,
            "byteOffset" : 50332
        },
        {
            "buffer" : 0,
            "byteLength" : 2844,
            "byteOffset" : 51040
        },
        {
            "buffer" : 0,
            "byteLength" : 2844,
            "byteOffset" : 53884
        },
        {
            "buffer" : 0,
            "byteLength" : 1896,
            "byteOffset" : 56728
        },
        {
            "buffer" : 0,
            "byteLength" : 768,
            "byteOffset" : 58624
        },
        {
            "buffer" : 0,
            "byteLength" : 1512,
            "byteOffset" : 59392
        },
        {
            "buffer" : 0,
            "byteLength" : 1512,
            "byteOffset" : 60904
        },
        {
            "buffer" : 0,
            "byteLength" : 1008,
            "byteOffset" : 62416
        },
        {
            "buffer" : 0,
            "byteLength" : 384,
            "byteOffset" : 63424
        },
        {
            "buffer" : 0,
            "byteLength" : 552,
            "byteOffset" : 63808
        },
        {
            "buffer" : 0,
            "byteLength" : 552,
            "byteOffset" : 64360
        },
        {
            "buffer" : 0,
            "byteLength" : 368,
            "byteOffset" : 64912
        },
        {
            "buffer" : 0,
            "byteLength" : 144,
            "byteOffset" : 65280
        },
        {
            "buffer" : 0,
            "byteLength" : 4440,
            "byteOffset" : 65424
        },
        {
            "buffer" : 0,
            "byteLength" : 4440,
            "byteOffset" : 69864
        },
        {
            "buffer" : 0,
            "byteLength" : 2960,
            "byteOffset" : 74304
        },
        {
            "buffer" : 0,
            "byteLength" : 1176,
            "byteOffset" : 77264
        },
        {
            "buffer" : 0,
            "byteLength" : 720,
            "byteOffset" : 78440
        },
        {
            "buffer" : 0,
            "byteLength" : 720,
            "byteOffset" : 79160
        },
        {
            "buffer" : 0,
            "byteLength" : 480,
            "byteOffset" : 79880
        },
        {
            "buffer" : 0,
            "byteLength" : 192,
            "byteOffset" : 80360
        }
    ],
    "buffers" : [
        {
            "byteLength" : 80552,
            "uri" : "data:application/octet-stream;base64,"
        }
    ]
}
